<svg xmlns="http://www.w3.org/2000/svg" xmlns:xlink="http://www.w3.org/1999/xlink" width="500" zoomAndPan="magnify" viewBox="0 0 375 374.999991" height="500" preserveAspectRatio="xMidYMid meet" version="1.0"><defs><g/><clipPath id="1f8c6d8bd3"><path d="M 82.953125 102 L 174.453125 102 L 174.453125 132.679688 L 82.953125 132.679688 Z M 82.953125 102 " clip-rule="nonzero"/></clipPath></defs><g fill="#000000" fill-opacity="1"><g transform="translate(65.993739, 232.124985)"><g><path d="M 22.03125 0.828125 C 16.613281 0.828125 12.722656 -0.367188 10.359375 -2.765625 C 8.003906 -5.160156 6.710938 -9.148438 6.484375 -14.734375 C 6.398438 -18.347656 6.359375 -21.546875 6.359375 -24.328125 C 6.359375 -27.117188 6.476562 -30.363281 6.71875 -34.0625 L 14.140625 -34.0625 C 13.984375 -30.601562 13.90625 -27.144531 13.90625 -23.6875 C 13.90625 -20.226562 13.984375 -16.847656 14.140625 -13.546875 C 14.296875 -10.878906 14.960938 -8.9375 16.140625 -7.71875 C 17.316406 -6.5 19.28125 -5.890625 22.03125 -5.890625 C 24.625 -5.890625 26.488281 -6.5 27.625 -7.71875 C 28.769531 -8.9375 29.421875 -10.878906 29.578125 -13.546875 C 29.734375 -15.753906 29.8125 -17.71875 29.8125 -19.4375 C 29.8125 -21.164062 29.789062 -22.953125 29.75 -24.796875 C 29.71875 -26.648438 29.660156 -28.796875 29.578125 -31.234375 C 29.503906 -34.210938 29.09375 -36.679688 28.34375 -38.640625 C 27.59375 -40.609375 26.117188 -41.867188 23.921875 -42.421875 L 17.671875 -44.078125 C 13.117188 -45.171875 10.132812 -47.171875 8.71875 -50.078125 C 7.300781 -52.984375 6.515625 -57.148438 6.359375 -62.578125 C 6.285156 -65.171875 6.265625 -67.957031 6.296875 -70.9375 C 6.335938 -73.925781 6.398438 -76.832031 6.484375 -79.65625 C 6.554688 -85.15625 7.769531 -89.101562 10.125 -91.5 C 12.488281 -93.894531 16.457031 -95.09375 22.03125 -95.09375 C 27.21875 -95.09375 30.96875 -93.894531 33.28125 -91.5 C 35.601562 -89.101562 36.882812 -85.15625 37.125 -79.65625 C 37.125 -77.457031 37.125 -74.765625 37.125 -71.578125 C 37.125 -68.398438 37.082031 -65.082031 37 -61.625 L 29.46875 -61.625 C 29.539062 -64.769531 29.578125 -67.953125 29.578125 -71.171875 C 29.578125 -74.398438 29.539062 -77.625 29.46875 -80.84375 C 29.300781 -85.875 26.785156 -88.390625 21.921875 -88.390625 C 19.242188 -88.390625 17.335938 -87.78125 16.203125 -86.5625 C 15.066406 -85.34375 14.421875 -83.4375 14.265625 -80.84375 C 14.097656 -77.78125 14.015625 -74.734375 14.015625 -71.703125 C 14.015625 -68.679688 14.097656 -65.640625 14.265625 -62.578125 C 14.335938 -59.035156 14.742188 -56.398438 15.484375 -54.671875 C 16.234375 -52.953125 17.789062 -51.773438 20.15625 -51.140625 L 25.921875 -49.734375 C 30.554688 -48.628906 33.597656 -46.582031 35.046875 -43.59375 C 36.503906 -40.613281 37.3125 -36.492188 37.46875 -31.234375 C 37.550781 -28.796875 37.59375 -26.75 37.59375 -25.09375 C 37.59375 -23.445312 37.570312 -21.835938 37.53125 -20.265625 C 37.488281 -18.691406 37.46875 -16.847656 37.46875 -14.734375 C 37.238281 -9.148438 35.941406 -5.160156 33.578125 -2.765625 C 31.222656 -0.367188 27.375 0.828125 22.03125 0.828125 Z M 22.03125 0.828125 "/></g></g></g><g fill="#000000" fill-opacity="1"><g transform="translate(109.713772, 232.124985)"><g><path d="M 22.03125 0.828125 C 16.613281 0.828125 12.707031 -0.347656 10.3125 -2.703125 C 7.914062 -5.066406 6.675781 -9 6.59375 -14.5 C 6.363281 -25.726562 6.25 -36.585938 6.25 -47.078125 C 6.25 -57.566406 6.363281 -68.46875 6.59375 -79.78125 C 6.675781 -85.28125 7.914062 -89.207031 10.3125 -91.5625 C 12.707031 -93.914062 16.613281 -95.09375 22.03125 -95.09375 C 27.53125 -95.09375 31.457031 -93.914062 33.8125 -91.5625 C 36.175781 -89.207031 37.4375 -85.28125 37.59375 -79.78125 C 37.75 -68.46875 37.828125 -57.566406 37.828125 -47.078125 C 37.828125 -36.585938 37.75 -25.726562 37.59375 -14.5 C 37.4375 -9 36.175781 -5.066406 33.8125 -2.703125 C 31.457031 -0.347656 27.53125 0.828125 22.03125 0.828125 Z M 22.03125 -5.890625 C 24.78125 -5.890625 26.742188 -6.4375 27.921875 -7.53125 C 29.109375 -8.632812 29.703125 -10.5625 29.703125 -13.3125 C 30.085938 -24.863281 30.257812 -36.21875 30.21875 -47.375 C 30.1875 -58.53125 30.015625 -69.722656 29.703125 -80.953125 C 29.703125 -83.703125 29.109375 -85.628906 27.921875 -86.734375 C 26.742188 -87.835938 24.78125 -88.390625 22.03125 -88.390625 C 19.363281 -88.390625 17.441406 -87.835938 16.265625 -86.734375 C 15.085938 -85.628906 14.457031 -83.703125 14.375 -80.953125 C 14.0625 -69.722656 13.90625 -58.53125 13.90625 -47.375 C 13.90625 -36.21875 14.0625 -24.863281 14.375 -13.3125 C 14.457031 -10.5625 15.085938 -8.632812 16.265625 -7.53125 C 17.441406 -6.4375 19.363281 -5.890625 22.03125 -5.890625 Z M 22.03125 -5.890625 "/></g></g></g><g fill="#000000" fill-opacity="1"><g transform="translate(153.787335, 232.124985)"><g><path d="M 6.25 0 L 6.25 -94.28125 L 14.015625 -94.28125 L 14.015625 -7.078125 L 32.875 -7.078125 L 32.875 0 Z M 6.25 0 "/></g></g></g><g fill="#000000" fill-opacity="1"><g transform="translate(189.729677, 232.124985)"><g><path d="M 6.25 0 L 6.25 -94.28125 L 32.765625 -94.28125 L 32.765625 -87.203125 L 14.015625 -87.203125 L 14.015625 -50.90625 L 31.578125 -50.90625 L 31.578125 -43.953125 L 14.015625 -43.953125 L 14.015625 -7.078125 L 32.765625 -7.078125 L 32.765625 0 Z M 6.25 0 "/></g></g></g><g fill="#000000" fill-opacity="1"><g transform="translate(226.379081, 232.124985)"><g><path d="M 5.421875 0 L 5.421875 -10.484375 L 18.734375 -10.484375 L 18.734375 0 Z M 5.421875 0 "/></g></g></g><g fill="#c8b34d" fill-opacity="1"><g transform="translate(250.540606, 232.124985)"><g><path d="M 6.25 0 L 6.25 -94.28125 L 14.015625 -94.28125 L 14.015625 0 Z M 6.25 0 "/></g></g></g><g fill="#c8b34d" fill-opacity="1"><g transform="translate(270.809727, 232.124985)"><g><path d="M 12.734375 0 L 3.0625 -70.703125 L 11.078125 -70.703125 L 14.84375 -36.171875 L 17.90625 -6.125 L 20.15625 -6.125 L 23.453125 -36.171875 L 26.984375 -70.703125 L 35.125 -70.703125 L 24.515625 9.65625 C 23.722656 14.6875 22.226562 18.320312 20.03125 20.5625 C 17.832031 22.800781 14.101562 23.921875 8.84375 23.921875 C 6.40625 23.921875 4.046875 23.722656 1.765625 23.328125 L 1.765625 17.203125 C 2.628906 17.359375 3.707031 17.457031 5 17.5 C 6.300781 17.539062 7.539062 17.5625 8.71875 17.5625 C 11.625 17.5625 13.566406 17.03125 14.546875 15.96875 C 15.535156 14.90625 16.222656 12.960938 16.609375 10.140625 L 18.03125 0 Z M 12.734375 0 "/></g></g></g><g clip-path="url(#1f8c6d8bd3)"><path fill="#000000" d="M 172.316406 125.800781 L 161.945312 125.800781 L 157.777344 117.097656 L 126.160156 102.152344 L 107.25 125.699219 L 85.796875 125.699219 L 82.953125 132.457031 L 174.453125 132.457031 Z M 136.226562 111.058594 L 156.558594 117.609375 L 152.898438 125.800781 L 131.648438 125.800781 Z M 136.226562 111.058594 " fill-opacity="1" fill-rule="nonzero"/></g></svg>